<svg width="55" height="55" fill="none" xmlns="http://www.w3.org/2000/svg"><circle cx="27.5" cy="27.5" r="27.5" fill="#E9EBF0"/><path d="M27.5 32.072c3.19 0 5.982 1.372 7.5 3.42l-1.605.759c-1.236-1.464-3.415-2.437-5.895-2.437-2.481 0-4.66.973-5.896 2.437L20 35.49c1.518-2.048 4.308-3.42 7.5-3.42zM27.5 19a4.357 4.357 0 014.357 4.357v2.614a4.357 4.357 0 01-4.168 4.353l-.19.005a4.357 4.357 0 01-4.357-4.358v-2.614a4.358 4.358 0 014.169-4.353L27.5 19zm0 1.743a2.614 2.614 0 00-2.61 2.46l-.005.154v2.614a2.614 2.614 0 005.224.154l.005-.154v-2.614a2.615 2.615 0 00-2.614-2.614z" fill="#BFC5D5"/></svg>