<svg width="20" height="19" fill="none" xmlns="http://www.w3.org/2000/svg"><path d="M12.364 11.818h5.818A1.818 1.818 0 0020 10V8.087c0-.237-.046-.473-.136-.692L17.05.563A.909.909 0 0016.21 0H.91A.91.91 0 000 .91V10a.91.91 0 00.91.91h3.165a.907.907 0 01.742.384l4.958 7.024a.454.454 0 00.574.145l1.65-.825a2.273 2.273 0 001.185-2.593l-.82-3.227zm-6.91-2.352V1.818H15.6l2.582 6.27V10h-5.818a1.817 1.817 0 00-1.762 2.267l.82 3.225a.454.454 0 01-.237.519l-.6.3-4.282-6.066a2.743 2.743 0 00-.848-.78zM3.637 9.09H1.818V1.818h1.818v7.273z" fill="#B3B5BF"/></svg>