<svg width="20" height="19" fill="none" xmlns="http://www.w3.org/2000/svg"><path d="M12.364 6.692h5.818A1.818 1.818 0 0120 8.511v1.912c0 .238-.046.473-.136.693l-2.814 6.832a.909.909 0 01-.84.563H.91A.91.91 0 010 17.6V8.51a.91.91 0 01.91-.91h3.165a.91.91 0 00.742-.384L9.775.192a.455.455 0 01.574-.144L12 .872a2.272 2.272 0 011.185 2.594l-.82 3.226zm-6.91 2.353v7.647H15.6l2.582-6.269V8.511h-5.818a1.818 1.818 0 01-1.762-2.267l.82-3.225a.454.454 0 00-.237-.52l-.6-.3-4.282 6.066a2.742 2.742 0 01-.848.78zm-1.818.375H1.818v7.272h1.818V9.42z" fill="#B3B5BF"/></svg>