<?xml version="1.0" standalone="no"?>
<!DOCTYPE svg PUBLIC "-//W3C//DTD SVG 1.1//EN" "http://www.w3.org/Graphics/SVG/1.1/DTD/svg11.dtd" >
<svg xmlns="http://www.w3.org/2000/svg">
<metadata>Generated by IcoMoon</metadata>
<defs>
<font id="icomoon" horiz-adv-x="1024">
<font-face units-per-em="1024" ascent="960" descent="-64" />
<missing-glyph horiz-adv-x="1024" />
<glyph unicode="&#x20;" horiz-adv-x="512" d="" />
<glyph unicode="&#xe900;" glyph-name="delivery" horiz-adv-x="1317" d="M0 846.689c0 24.479 24.56 44.324 54.857 44.324h822.857c30.296 0 54.857-19.845 54.857-44.324v-576.211c0-24.479-24.561-44.321-54.857-44.321h-822.857c-30.297 0-54.857 19.841-54.857 44.321v576.211zM109.714 802.365v-487.563h713.143v487.563h-713.143zM822.857 625.070c0 24.479 24.561 44.324 54.857 44.324h219.429c14.548 0 28.504-4.67 38.788-12.982l164.571-132.972c10.291-8.313 16.069-19.586 16.069-31.342v-221.62c0-24.479-24.561-44.321-54.857-44.321h-384c-30.296 0-54.857 19.841-54.857 44.321v354.591zM932.571 580.746v-265.944h274.286v158.937l-132.44 107.007h-141.846zM301.714 226.158c-45.445 0-82.286-29.769-82.286-66.487s36.841-66.487 82.286-66.487c45.445 0 82.286 29.769 82.286 66.487s-36.841 66.487-82.286 66.487zM109.714 159.671c0 85.676 85.961 155.132 192 155.132s192-69.456 192-155.132c0-85.68-85.961-155.136-192-155.136s-192 69.456-192 155.136zM1014.857 226.158c-45.444 0-82.286-29.769-82.286-66.487s36.842-66.487 82.286-66.487c45.444 0 82.286 29.769 82.286 66.487s-36.842 66.487-82.286 66.487zM822.857 159.671c0 85.676 85.965 155.132 192 155.132s192-69.456 192-155.132c0-85.68-85.965-155.136-192-155.136s-192 69.456-192 155.136z" />
<glyph unicode="&#xe901;" glyph-name="car" horiz-adv-x="2176" d="M950.099 558.209h139.699v-73.972h-139.699v73.972zM2142.534 668.772l-237.242 35.873c-43.264 28.138-88.154 53.328-134.445 75.432-152.858 73.311-318.758 111.14-486.579 110.944h-41.216c-198.048-0.15-392.928-52.771-566.874-153.062l-119.734-69.157c-140.153-1.67-277.605-41.14-399.368-114.631-49.484-30.049-80.039-85.8-80.124-146.185v-219.583c0-20.435 15.633-36.992 34.932-36.992h117.272c38.143-115.213 157.277-175.885 266.094-135.501 59.901 22.227 106.983 72.096 127.974 135.501h933.121c38.144-115.213 157.274-175.885 266.093-135.501 59.885 22.227 106.982 72.096 127.974 135.501h12.531c4.448 0 8.858 0.89 12.992 2.637l113.12 48.058c50.541 21.19 83.635 72.986 83.45 130.509v299.547c0 18.388-12.774 33.992-29.971 36.611zM563.082 195.789c-15.448-80.038-89.247-131.667-164.838-115.309-75.605 16.358-124.364 94.496-108.916 174.547 15.462 80.040 89.262 131.667 164.852 115.311 65.045-14.069 111.744-74.664 111.73-144.968 0-9.926-0.952-19.846-2.828-29.581zM1194.579 225.37h-558.82c0 122.548-93.81 221.89-209.547 221.89s-209.562-99.342-209.562-221.89h-69.849v182.616c0.043 33.872 17.181 65.155 44.951 81.978 113.975 68.902 242.929 105.165 374.157 105.211h628.669v-369.805zM1194.579 669.133h-491.686l6.739 3.897c149.318 85.921 315.181 134.628 484.947 142.408v-146.305zM1264.429 817.063h19.77c140.749 0.166 280.218-28.124 410.95-83.362l-60.986-64.568h-369.734v147.93zM1890.272 195.789c-15.45-80.038-89.248-131.667-164.858-115.309-75.59 16.358-124.346 94.496-108.896 174.547 15.443 80.040 89.261 131.667 164.851 115.311 65.043-14.069 111.744-74.664 111.725-144.968 0-9.926-0.947-19.846-2.822-29.581zM2102.656 558.204h-104.781v-73.972h104.781v-151.617c0.090-27.251-15.603-51.776-39.533-61.786l-100.179-42.598c0 3.398-0.41 6.771-0.621 10.17-0.218 3.405-0.288 7.392-0.627 11.091-0.358 3.706-1.050 7.405-1.606 11.091-0.57 3.699-0.979 7.405-1.677 10.758-0.698 3.373-1.722 7.104-2.63 10.624-0.909 3.507-1.606 7.059-2.656 10.502-1.037 3.43-2.304 6.726-3.482 10.099-1.197 3.354-2.272 6.829-3.494 10.17-1.222 3.328-2.874 6.349-4.339 9.496-1.459 3.145-2.899 6.591-4.531 9.766-1.645 3.175-3.494 5.884-5.075 8.833-1.562 2.964-3.482 6.335-5.472 9.359-2.003 3.039-3.846 5.432-5.766 8.171s-4.096 5.958-6.323 8.803c-2.234 2.844-4.32 5.071-6.496 7.404-2.163 2.317-4.576 5.462-6.976 8.050-2.419 2.588-4.794 4.635-7.194 6.922-2.413 2.287-4.998 4.996-7.661 7.404-2.643 2.392-5.344 4.243-7.987 6.35-2.656 2.106-5.312 4.364-8.096 6.335-2.803 1.956-5.946 3.687-8.941 5.763-3.014 2.077-5.459 3.702-8.288 5.282-2.829 1.595-6.349 3.265-9.562 4.89s-5.728 3.069-8.698 4.394c-2.97 1.34-6.995 2.739-10.477 4.063-3.494 1.34-5.766 2.378-8.736 3.371-3.981 1.294-8.058 2.227-12.122 3.295-2.662 0.662-5.203 1.55-7.891 2.137-4.288 0.932-8.698 1.444-13.056 2.122-2.586 0.361-5.062 0.963-7.648 1.219-6.989 0.737-13.971 1.144-21.306 1.144-115.693-0.12-209.446-99.388-209.555-221.891h-279.514v369.776h384.179c9.261 0 18.144 3.897 24.685 10.834l90.566 95.896c38.016-19.155 74.982-40.568 110.72-64.131 4.122-2.724 8.73-4.515 13.549-5.252l214.515-32.427v-41.907z" />
<glyph unicode="&#xe902;" glyph-name="characteristic" horiz-adv-x="819" d="M39.99 919.101c25.605 26.187 60.333 40.899 96.544 40.899h364.089c12.070 0 23.646-4.904 32.182-13.633l273.064-279.273c8.54-8.729 13.332-20.568 13.332-32.913v-558.542c0-37.035-14.384-72.554-39.991-98.741s-60.334-40.899-96.543-40.899h-546.133c-36.211 0-70.939 14.711-96.544 40.899s-39.99 61.706-39.99 98.741v744.724c0 37.033 14.385 72.551 39.99 98.737zM136.533 866.909c-12.070 0-23.646-4.904-32.181-13.633s-13.33-20.567-13.33-32.912v-744.724c0-12.349 4.795-24.187 13.33-32.918 8.535-8.724 20.111-13.633 32.181-13.633h546.133c12.070 0 23.648 4.908 32.181 13.633 8.533 8.731 13.332 20.569 13.332 32.918v539.262l-246.409 252.007h-345.238zM500.622 960c25.135 0 45.511-20.839 45.511-46.545v-232.727h227.553c25.136 0 45.513-20.839 45.513-46.546s-20.378-46.546-45.513-46.546h-273.065c-25.135 0-45.511 20.84-45.511 46.546v279.273c0 25.706 20.376 46.545 45.511 46.545zM182.045 401.454c0 25.706 20.376 46.546 45.511 46.546h364.089c25.135 0 45.511-20.839 45.511-46.546s-20.376-46.546-45.511-46.546h-364.089c-25.135 0-45.511 20.839-45.511 46.546zM182.045 215.272c0 25.709 20.376 46.544 45.511 46.544h364.089c25.135 0 45.511-20.835 45.511-46.544 0-25.702-20.376-46.544-45.511-46.544h-364.089c-25.135 0-45.511 20.842-45.511 46.544zM182.045 587.636c0 25.706 20.376 46.546 45.511 46.546h91.023c25.135 0 45.511-20.839 45.511-46.546s-20.376-46.545-45.511-46.545h-91.023c-25.135 0-45.511 20.839-45.511 46.545z" />
<glyph unicode="&#xe903;" glyph-name="arrow-left" horiz-adv-x="614" d="M560.271 905.868c26.66-26.66 26.66-69.884 0-96.544l-361.328-361.329 361.328-361.329c26.66-26.66 26.66-69.883 0-96.543s-69.884-26.66-96.544 0l-409.6 409.6c-26.66 26.66-26.66 69.884 0 96.544l409.6 409.6c26.66 26.66 69.884 26.66 96.544 0z" />
<glyph unicode="&#xe904;" glyph-name="arrow-right" horiz-adv-x="614" d="M54.13-9.866c-26.66 26.66-26.66 69.883 0 96.543l361.328 361.328-361.328 361.328c-26.66 26.66-26.66 69.884 0 96.544s69.884 26.66 96.544 0l409.597-409.6c26.66-26.66 26.66-69.882 0-96.542l-409.597-409.6c-26.66-26.66-69.884-26.66-96.544 0z" />
<glyph unicode="&#xe905;" glyph-name="cosmetics" horiz-adv-x="986" d="M286.174 487.439h-10.802v90.962c0 10.78-8.414 19.52-18.798 19.52h-1.614v186.096c0 7.392-4.020 14.151-10.391 17.459l-145.468 75.552c-5.825 3.025-12.745 2.704-18.289-0.854-5.544-3.555-8.918-9.838-8.918-16.605v-261.648h-1.614c-10.384 0-18.797-8.74-18.797-19.52v-90.962h-10.82c-10.384 0-18.798-8.738-18.798-19.52v-512.398c0-10.779 8.414-19.52 18.798-19.52h245.506c10.384 0 18.798 8.742 18.798 19.52v512.398c0.005 10.782-8.409 19.52-18.793 19.52zM109.495 827.979l107.873-56.026v-174.032h-107.873v230.059zM89.086 558.88h148.694v-71.441h-148.694v71.441zM267.377-24.959h-207.911v473.357h207.911v-473.357zM945.402 168.050h-610.553c-10.384 0-18.798-8.738-18.798-19.52s8.414-19.52 18.798-19.52h580.644l-4.297-9.28c-23.613-50.95-74.050-83.873-128.501-83.873h-447.847c-10.384 0-18.798-8.742-18.798-19.52 0-10.782 8.414-19.52 18.798-19.52h447.847c68.805 0 132.544 41.601 162.376 105.988l17.268 37.262c2.807 6.049 2.42 13.172-1.020 18.853-3.444 5.681-9.451 9.133-15.918 9.133zM291.447 816.462c70.090 67.385 161.332 104.497 256.92 104.497 208.562 0 378.243-176.205 378.243-392.791 0-116.766-49.55-226.714-135.934-301.648-7.972-6.914-9.034-19.221-2.378-27.496 3.717-4.623 9.057-7.005 14.438-7.005 4.248 0 8.522 1.487 12.038 4.54 94.97 82.371 149.432 203.241 149.432 331.613-0.004 238.109-186.546 431.828-415.839 431.828-105.089 0-205.4-40.803-282.462-114.893-7.617-7.324-8.075-19.674-1.022-27.586 7.050-7.907 18.943-8.384 26.565-1.059zM548.356 839.769c165.459 0 300.070-139.788 300.070-311.609 0-171.823-134.61-311.611-300.070-311.611-74.384 0-145.734 28.467-200.914 80.156-7.705 7.221-19.592 6.588-26.55-1.418-6.953-8.002-6.341-20.347 1.368-27.568 62.096-58.175 142.393-90.211 226.096-90.211 186.19 0 337.666 157.302 337.666 350.652 0 193.348-151.476 350.65-337.666 350.65-106.932 0-208.659-53.46-272.117-143.007-6.155-8.683-4.363-20.902 3.998-27.292 8.361-6.387 20.123-4.531 26.281 4.151 56.403 79.589 146.811 127.107 241.838 127.107zM755.154 681.94l-343.040-356.232c-7.339-7.623-7.339-19.983 0-27.606 3.671-3.808 8.484-5.715 13.293-5.715 4.813 0 9.622 1.904 13.297 5.715l343.032 356.234c7.342 7.623 7.342 19.984 0 27.605-7.342 7.623-19.244 7.623-26.582 0zM516.574 323.3c-7.342-7.623-7.342-19.983 0-27.606 3.671-3.808 8.484-5.715 13.293-5.715s9.622 1.904 13.293 5.715l257.551 267.457c7.342 7.623 7.342 19.984 0 27.605-7.342 7.623-19.244 7.623-26.582 0l-257.555-267.456z" />
<glyph unicode="&#xe906;" glyph-name="description" horiz-adv-x="1434" d="M0 594.286c0 40.396 32.092 73.143 71.68 73.143h1003.52c39.588 0 71.68-32.748 71.68-73.143s-32.092-73.142-71.68-73.142h-1003.52c-39.588 0-71.68 32.746-71.68 73.142zM0 886.857c0 40.396 32.092 73.143 71.68 73.143h1290.24c39.588 0 71.68-32.747 71.68-73.143s-32.092-73.143-71.68-73.143h-1290.24c-39.588 0-71.68 32.748-71.68 73.143zM0 301.714c0 40.396 32.092 73.142 71.68 73.142h1290.24c39.588 0 71.68-32.746 71.68-73.142s-32.092-73.143-71.68-73.143h-1290.24c-39.588 0-71.68 32.748-71.68 73.143zM0 9.143c0 40.395 32.092 73.142 71.68 73.142h1003.52c39.588 0 71.68-32.748 71.68-73.142 0-40.396-32.092-73.143-71.68-73.143h-1003.52c-39.588 0-71.68 32.748-71.68 73.143z" />
<glyph unicode="&#xe907;" glyph-name="filter" horiz-adv-x="1195" d="M199.111 396.8c27.492 0 49.778-22.923 49.778-51.2v-358.4c0-28.279-22.287-51.2-49.778-51.2s-49.777 22.921-49.777 51.2v358.4c0 28.277 22.287 51.2 49.777 51.2zM199.111 960c27.492 0 49.778-22.923 49.778-51.2v-358.4c0-28.277-22.287-51.2-49.778-51.2s-49.777 22.923-49.777 51.2v358.4c0 28.277 22.287 51.2 49.777 51.2zM597.333 499.2c27.492 0 49.777-22.923 49.777-51.2v-460.8c0-28.279-22.286-51.2-49.777-51.2s-49.777 22.921-49.777 51.2v460.8c0 28.277 22.286 51.2 49.777 51.2zM597.333 960c27.492 0 49.777-22.923 49.777-51.2v-256c0-28.277-22.286-51.2-49.777-51.2s-49.777 22.923-49.777 51.2v256c0 28.277 22.286 51.2 49.777 51.2zM995.558 294.4c27.486 0 49.775-22.923 49.775-51.2v-256c0-28.279-22.289-51.2-49.775-51.2-27.494 0-49.783 22.921-49.783 51.2v256c0 28.277 22.289 51.2 49.783 51.2zM995.558 960c27.486 0 49.775-22.923 49.775-51.2v-460.8c0-28.277-22.289-51.2-49.775-51.2-27.494 0-49.783 22.923-49.783 51.2v460.8c0 28.277 22.289 51.2 49.783 51.2zM0 345.6c0 28.277 22.286 51.2 49.778 51.2h298.666c27.492 0 49.778-22.923 49.778-51.2s-22.287-51.2-49.778-51.2h-298.666c-27.491 0-49.778 22.923-49.778 51.2zM398.223 652.8c0 28.277 22.286 51.2 49.777 51.2h298.667c27.492 0 49.777-22.923 49.777-51.2s-22.286-51.2-49.777-51.2h-298.667c-27.492 0-49.777 22.923-49.777 51.2zM796.444 243.2c0 28.277 22.287 51.2 49.778 51.2h298.669c27.486 0 49.775-22.923 49.775-51.2s-22.289-51.2-49.775-51.2h-298.669c-27.492 0-49.778 22.923-49.778 51.2z" />
<glyph unicode="&#xe908;" glyph-name="fried-egg" horiz-adv-x="948" d="M469.811-46.308c-53.036 0-95.718 23.287-129.558 70.428-17.378 24.189-46.477 39.177-77.799 40.095-85.368 2.56-157.642 53.764-184.142 130.496-12.032 34.85-13.912 72.901-5.444 110.046 3.94 17.306-1.455 34.907-14.108 45.906-28.315 24.633-47.409 58.493-55.174 97.974-15.171 77.012 18.718 165.451 84.322 220.025 28.396 23.641 59.62 39.761 92.839 47.935 19.013 4.696 36.799 22.087 44.286 43.274 24.195 68.628 79.418 128.552 147.703 160.297 94.197 43.769 193.346 21.010 235.736-54.133l1.161-2.101c20.237-37.041 60.75-57.399 111.134-55.845 82.049 2.684 184.548-7.804 207.174-73.342 17.002-49.224 8.992-105.723-22.592-159.097-24.735-41.825-24.356-83.794 0.997-112.219 21.318-23.905 34.691-52.122 39.758-83.847 14.681-91.917-51.333-189.872-156.972-232.88-23.491-9.569-47.817-16.137-72.306-19.494-30.735-4.198-56.597-23.268-62.893-46.361-15.872-58.391-66.173-104.49-131.254-120.324-18.656-4.559-36.276-6.834-52.869-6.834zM468.37 907.015c-26.45 0-54.746-6.285-82.701-19.28-60.325-28.037-108.943-80.546-130.065-140.451-11.378-32.24-37.894-57.787-67.549-65.115h-0.016c-28.576-7.027-55.534-20.993-80.17-41.491-55.844-46.47-84.911-120.714-72.306-184.714 6.196-31.429 21.301-58.334 43.698-77.809 22.658-19.706 32.369-51.079 25.356-81.871-6.899-30.208-5.411-61.072 4.332-89.251 21.824-63.173 82.426-105.385 154.406-107.539 41-1.202 79.418-21.295 102.746-53.745 36.864-51.344 82.948-66.989 149.421-50.798 53.506 13.012 94.538 49.736 107.076 95.839 10.005 36.724 46.232 65.43 90.142 71.433 21.955 3 43.797 8.897 64.884 17.495 90.977 37.061 148.309 118.594 136.294 193.843-3.941 24.629-14.385 46.63-31.095 65.346-36.014 40.376-37.926 100.037-5.002 155.723 25.911 43.786 32.844 89.162 19.505 127.739-12.019 34.782-77.604 53.55-175.559 50.39-62.498-2.313-113.801 24.7-140.413 73.43-22.395 39.761-64.573 60.824-112.981 60.824zM184.409 699.401v0zM539.485 801.116c-5.511 0-10.904 3.019-13.979 8.475-9.334 16.561-31.092 26.837-56.775 26.837-17.279 0-33.792-7.027-53.57-16.208-8.291-3.849-17.916 0.3-21.481 9.234-3.565 8.951 0.262 19.351 8.567 23.182 22.494 10.452 43.027 19.104 66.484 19.104 37.585 0 69.268-16.367 84.715-43.786 4.691-8.334 2.241-19.192-5.461-24.259-2.662-1.748-5.59-2.577-8.499-2.577zM196.163 606.902c-7.455 0-14.19 5.526-15.923 13.719-2.011 9.516 3.499 18.98 12.294 21.152 29.557 7.309 68.563 26.66 86.464 77.35 3.22 9.11 12.67 13.63 21.105 10.223 8.435-3.478 12.67-13.665 9.449-22.793-18.228-51.679-56.171-85.984-109.71-99.208-1.259-0.3-2.485-0.441-3.678-0.441zM702.93 200.818c-8.090 0-15.121 6.482-16.183 15.379-1.161 9.675 5.15 18.523 14.108 19.794 36.587 5.135 64.542 12.307 90.779 32.237 7.388 5.617 17.575 3.69 22.775-4.289 5.196-7.98 3.413-18.997-3.975-24.595-31.649-24.030-65.016-32.715-105.396-38.381-0.702-0.091-1.403-0.144-2.109-0.144zM850.079 289.098c-3.63 0-7.278 1.289-10.301 3.956-7.013 6.144-8.074 17.268-2.386 24.841 21.807 28.991 22.020 41.703 1.028 64.762-6.326 6.956-6.243 18.132 0.197 24.963 6.44 6.853 16.79 6.747 23.116-0.228 41.066-45.128 23.575-81.837 1.028-111.798-3.22-4.27-7.927-6.497-12.682-6.497zM392.34 165.509c-117.183 0-212.524 102.969-212.524 229.524s95.341 229.525 212.524 229.525c117.18 0 212.522-102.97 212.522-229.525s-95.327-229.524-212.522-229.524zM392.34 589.246c-99.152 0-179.828-87.13-179.828-194.214 0-107.080 80.676-194.215 179.828-194.215 99.146 0 179.826 87.135 179.826 194.215 0 107.084-80.661 194.214-179.826 194.214zM326.962 500.967c-5.313 0-10.512 2.791-13.651 7.927-4.969 8.139-2.893 19.088 4.627 24.474 24.113 17.196 45.529 20.567 74.398 20.586 9.026 0 16.35-7.892 16.35-17.658 0-9.762-7.323-17.655-16.35-17.655-24.227 0-38.842-2.207-56.383-14.727-2.763-1.995-5.885-2.947-8.991-2.947zM261.555 377.378c-9.024 0-16.348 7.892-16.348 17.655-0.016 28.372 6.539 56.536 18.457 79.33 4.43 8.492 14.402 11.492 22.282 6.671 7.864-4.801 10.626-15.572 6.196-24.064-9.057-17.302-14.239-39.868-14.239-61.918 0.016-9.747-7.308-17.658-16.348-17.673 0.016 0 0.016 0 0 0z" />
<glyph unicode="&#xe909;" glyph-name="home" horiz-adv-x="945" d="M443.6 950.195c17.066 13.073 40.965 13.073 58.031 0l425.357-325.818c11.508-8.818 18.243-22.377 18.243-36.74v-512.002c0-37.029-14.935-72.546-41.527-98.737-26.592-26.183-62.653-40.897-100.257-40.897h-661.662c-37.604 0-73.667 14.714-100.257 40.897-26.59 26.191-41.528 61.708-41.528 98.737v512.002c0 14.364 6.733 27.922 18.246 36.74l425.354 325.818zM94.523 564.871v-489.237c0-12.343 4.979-24.182 13.843-32.91s20.884-13.635 33.419-13.635h661.662c12.532 0 24.552 4.907 33.422 13.635 8.862 8.728 13.84 20.567 13.84 32.91v489.237l-378.092 289.616-378.092-289.616zM283.569 448c0 25.706 21.16 46.546 47.262 46.546h283.569c26.102 0 47.262-20.839 47.262-46.546v-465.455c0-25.702-21.16-46.545-47.262-46.545s-47.262 20.842-47.262 46.545v418.91h-189.046v-418.91c0-25.702-21.16-46.545-47.262-46.545s-47.262 20.842-47.262 46.545v465.455z" />
<glyph unicode="&#xe90a;" glyph-name="hoodie" horiz-adv-x="914" d="M885.35 15.276l-116.959 473.399c-1.090 4.498-3.906 8.368-7.819 10.734l-178.67 106.796c22.546 41.152 34.256 87.542 34 134.664 0 121.163-70.89 219.132-157.93 219.132-87.036 0-158.778-98.315-158.778-219.132-0.257-47.122 11.454-93.512 34-134.664l-179.519-106.277c-3.912-2.366-6.73-6.235-7.82-10.734l-116.959-473.918c-2.046-8.159 1.972-16.636 9.52-20.078l91.289-41.37c8.57-3.902 18.626 0.007 22.459 8.737 0.113 0.256 0.221 0.519 0.321 0.783l81.77 219.824v-229.862c0-9.56 7.612-17.309 17-17.309h411.737c9.388 0 17.002 7.749 17.002 17.309v229.343l81.766-219.304c3.328-8.942 13.144-13.44 21.925-10.053 0.289 0.113 0.574 0.234 0.856 0.362l91.29 41.366c7.625 3.456 11.663 12.036 9.52 20.253zM786.414-7.746l-108.292 291.138c-3.2 8.986-12.95 13.627-21.778 10.368-6.777-2.505-11.264-9.088-11.202-16.428v-306.714h-376.886v306.714c-0.907 9.516-9.22 16.479-18.564 15.554-5.827-0.574-10.95-4.162-13.566-9.494l-109.139-291.138-60.86 28.039 111.859 452.977 162.009 96.757v-66.64c-15.498-9.556-20.451-30.098-11.063-45.879s29.563-20.824 45.062-11.264c15.499 9.556 20.451 30.098 11.063 45.879-2.739 4.612-6.535 8.474-11.063 11.264v96.932c0 0 0 1.038 0 1.731 0.088 1.036 0.088 2.079 0 3.116-0.329 1.201-0.786 2.36-1.36 3.462 0.026 0.519 0.026 1.039 0 1.558-24.861 38.822-37.711 84.345-36.889 130.683-2.55 101.777 53.379 184.514 121.379 184.514s123.93-82.737 123.93-184.687c0.746-45.35-11.546-89.931-35.361-128.26-3.182-3.267-4.955-7.69-4.93-12.289v-96.93c-15.495-9.56-20.451-30.102-11.063-45.883 9.388-15.777 29.564-20.82 45.063-11.264 15.499 9.56 20.451 30.102 11.063 45.883-2.743 4.608-6.535 8.474-11.063 11.264v67.16l162.52-97.104 110.837-452.977-61.707-28.039zM457.125 872.935c-54.4 0-97.070-67.159-97.070-152.838s42.67-152.837 97.070-152.837c54.4 0 97.068 67.158 97.068 152.837s-42.668 152.838-97.068 152.838zM457.125 601.876c-34 0-63.071 53.831-63.071 118.22s29.071 118.22 63.071 118.22c34 0 63.067-54.177 63.067-118.22s-29.067-118.22-63.067-118.22zM589.722 129.858c-45.561 14.713-51.847 75.297-51.847 75.988-0.797 8.945-8.177 15.788-17.002 15.751l-127.499-0.867c-8.821 0.037-16.205-6.802-16.998-15.751 0 0-5.95-61.1-51.851-75.984-7.365-2.352-12.253-9.457-11.9-17.309v-75.813c0-9.56 7.612-17.309 17-17.309h255c9.388 0 16.998 7.749 16.998 17.309v76.676c0.355 7.852-4.535 14.961-11.9 17.309zM567.621 54.217h-220.998v46.563c32.084 17.452 54.565 48.889 61.031 85.332h98.94c6.462-36.443 28.946-67.88 61.027-85.332v-46.563z" />
<glyph unicode="&#xe90b;" glyph-name="house" horiz-adv-x="958" d="M254.283 35.909c-6.483 40.124-39.292 70.758-78.663 70.758-31.436 0-58.674-19.525-71.686-47.821-2.571 1.962-5.317 3.703-8.142 5.272v281.481c0 9.421-7.152 17.068-15.965 17.068s-15.965-7.647-15.965-17.068v-273.064c-35.219 0-63.862-30.618-63.862-68.268s28.643-68.268 63.862-68.268h175.622c26.407 0 47.897 22.974 47.897 51.2 0 22.716-13.907 42.017-33.097 48.709zM239.484-29.864h-175.622c-17.609 0-31.932 15.307-31.932 34.132s14.322 34.132 31.932 34.132c14.897 0 28.132-9.249 32.937-23.040 2.698-7.733 10.17-12.288 17.802-10.818 7.6 1.467 13.123 8.532 13.123 16.794 0 28.226 21.49 51.2 47.897 51.2s47.897-22.974 47.897-51.2c0-9.421 7.153-17.068 15.965-17.068 8.797 0 15.965-7.66 15.965-17.064s-7.166-17.068-15.963-17.068zM941.971 823.466h-303.348c-8.813 0-15.964-7.646-15.964-17.066s7.151-17.066 15.964-17.066h287.381v-368.401l-435.748 465.799c-3.128 3.346-7.234 5-11.337 5s-8.205-1.656-11.337-5l-435.65-465.782v368.384h175.622c8.812 0 15.965 7.646 15.965 17.066v68.266c0 9.42-7.153 17.066-15.965 17.066h-15.967v34.134h95.794v-34.134h-15.965c-8.812 0-15.965-7.646-15.965-17.066v-68.266c0-9.42 7.153-17.066 15.965-17.066h47.897c8.812 0 15.965 7.646 15.965 17.066s-7.153 17.066-15.965 17.066h-31.932v34.134h15.965c8.812 0 15.965 7.646 15.965 17.066v68.268c0 9.42-7.153 17.066-15.965 17.066h-127.723c-8.812 0-15.965-7.646-15.965-17.066v-68.266c0-9.42 7.153-17.066 15.965-17.066h15.965v-34.134h-175.622c-4.23 0-8.301-1.792-11.288-5-3.001-3.194-4.677-7.546-4.677-12.068l0.064-426.664c0-6.914 3.895-13.127 9.867-15.773 1.979-0.869 4.039-1.298 6.099-1.298 4.167 0 8.255 1.741 11.288 5.001l451.6 482.92 451.762-482.917c3.049-3.26 7.135-5.001 11.287-5.001 2.061 0 4.136 0.426 6.114 1.298 5.956 2.646 9.85 8.872 9.85 15.77v426.664c0.003 9.42-7.148 17.066-15.961 17.066zM894.074 72.536v273.064c0 9.421-7.151 17.068-15.964 17.068s-15.964-7.647-15.964-17.068v-281.481c-2.828-1.569-5.573-3.31-8.142-5.272-13.015 28.295-40.25 47.821-71.687 47.821-39.371 0-72.182-30.634-78.663-70.758-19.192-6.692-33.098-25.993-33.098-48.709 0-6.025 1.15-11.707 2.953-17.064h-274.369c-8.813 0-15.964-7.647-15.964-17.068s7.151-17.064 15.964-17.064h494.932c35.222-0.003 63.865 30.614 63.865 68.264 0 37.647-28.642 68.268-63.861 68.268zM894.074-29.864h-175.623c-8.796 0-15.964 7.66-15.964 17.064s7.168 17.068 15.964 17.068c8.813 0 15.964 7.644 15.964 17.064 0 28.229 21.491 51.2 47.897 51.2s47.897-22.971 47.897-51.2c0-8.261 5.526-15.327 13.124-16.794 7.584-1.483 15.106 3.089 17.801 10.818 4.806 13.791 18.042 23.040 32.936 23.040 17.609 0 31.932-15.307 31.932-34.132s-14.319-34.129-31.929-34.129zM542.829 618.668c0 37.649-28.642 68.265-63.861 68.265-35.222 0-63.861-30.618-63.861-68.265 0-37.65 28.639-68.268 63.861-68.268s63.861 30.618 63.861 68.268zM447.035 618.668c0 18.823 14.319 34.133 31.932 34.133 17.609 0 31.932-15.308 31.932-34.133s-14.319-34.136-31.932-34.136c-17.609 0.003-31.932 15.31-31.932 34.136zM782.316 379.732h-127.726c-8.813 0-15.964-7.644-15.964-17.064v-187.732h-15.968c-8.81 0-15.964-7.647-15.964-17.068s7.155-17.064 15.964-17.064h191.587c8.813 0 15.968 7.644 15.968 17.064s-7.155 17.068-15.968 17.068h-15.964v187.732c0 9.421-7.151 17.064-15.964 17.064zM766.348 174.936h-95.794v68.264h95.794v-68.264zM766.348 277.336h-95.794v68.264h95.794v-68.264zM638.623 21.336c0 9.421-7.151 17.068-15.964 17.068h-47.897v324.264c0 9.421-7.151 17.064-15.964 17.064h-159.655c-8.813 0-15.964-7.644-15.964-17.064v-324.264h-47.897c-8.813 0-15.966-7.647-15.966-17.068v-68.264c0-9.421 7.153-17.068 15.966-17.068 8.81 0 15.964 7.647 15.964 17.068v51.2h271.413c8.813-0.003 15.964 7.644 15.964 17.064zM542.829 209.068h-15.964c-8.813 0-15.964-7.647-15.964-17.064 0-9.421 7.151-17.068 15.964-17.068h15.964v-136.532h-127.726v307.2h127.726v-136.536zM303.346 379.732h-127.724c-8.812 0-15.965-7.644-15.965-17.064v-187.732h-15.967c-8.812 0-15.965-7.647-15.965-17.068s7.153-17.068 15.965-17.068h191.587c8.813 0 15.964 7.647 15.964 17.064 0 9.421-7.151 17.068-15.964 17.068h-15.964v187.732c0 9.424-7.153 17.068-15.967 17.068zM287.381 174.936h-95.794v68.264h95.794v-68.264zM287.381 277.332h-95.794v68.268h95.794v-68.268z" />
<glyph unicode="&#xe90c;" glyph-name="info" horiz-adv-x="967" d="M483.556-25.725c268.151 0 483.556 215.404 483.556 483.557s-215.404 483.556-483.556 483.556c-268.154 0-483.556-215.402-483.556-483.556s215.402-483.557 483.556-483.557zM483.556 853.468c219.796 0 395.634-175.838 395.634-395.637 0-219.797-175.838-395.635-395.634-395.635-219.798 0-395.637 175.838-395.637 395.635s175.838 395.637 395.637 395.637zM483.556 413.872c26.376 0 43.96 17.584 43.96 43.96v175.838c0 26.376-17.584 43.96-43.96 43.96s-43.96-17.584-43.96-43.96v-175.838c0-26.376 17.584-43.96 43.96-43.96zM483.556 238.034c13.188 0 21.98 4.398 30.772 13.187s13.188 17.584 13.188 30.771c0 4.398 0 13.187-4.396 17.584s-4.396 8.789-8.792 13.187c-13.188 13.187-30.772 17.584-48.356 8.795-4.396 0-4.396 0-8.792-4.398 0 0-4.396-4.398-8.792-4.398-4.396-4.398-8.792-8.789-8.792-13.187s0-13.187 0-17.584c0-4.398 0-13.187 4.396-17.584s4.396-8.789 8.792-13.187c8.792-8.789 17.584-13.187 30.772-13.187z" />
<glyph unicode="&#xe90d;" glyph-name="man" horiz-adv-x="1113" d="M1107.037 682.318c-0.254 0.27-0.521 0.535-0.792 0.792l-229.759 204.208c-2.097 1.911-4.546 3.393-7.208 4.368l-166.204 59.406c-11.34 4.117-23.868-1.739-27.986-13.077-0.739-2.045-1.171-4.188-1.282-6.361 0-4.805-7.208-115.536-117.938-117.283-111.386 1.747-118.375 112.478-118.593 117.283-0.644 12.045-10.931 21.286-22.976 20.642-2.069-0.112-4.114-0.516-6.072-1.204l-165.987-60.061c-2.665-0.975-5.111-2.457-7.207-4.368l-228.233-203.553c-8.744-8.307-9.099-22.133-0.792-30.877 0.257-0.27 0.521-0.535 0.792-0.792l181.712-183.678v-502.33c0-12.061 9.779-21.842 21.841-21.842h692.344c12.061 0 21.838 9.781 21.838 21.842v502.33l181.711 183.678c8.744 8.308 9.1 22.13 0.792 30.877zM923.88 530.008v101.339c0 12.061-9.781 21.841-21.842 21.841s-21.838-9.779-21.838-21.841v-642.981h-648.881v642.981c0 12.061-9.779 21.841-21.84 21.841s-21.841-9.779-21.841-21.841v-101.558l-134.319 136.066 207.921 186.081 136.721 49.359c16.937-87.269 101.413-144.286 188.684-127.349 64.445 12.509 114.839 62.9 127.346 127.349l136.722-49.359 207.267-186.081-134.099-135.847z" />
<glyph unicode="&#xe90e;" glyph-name="pc-screen" d="M955.716 960h-887.432c-37.65 0-68.284-30.634-68.284-68.284v-529.048c0-9.441 7.646-17.068 17.066-17.068h989.866c9.421 0 17.064 7.627 17.064 17.068v529.048c0.004 37.65-30.63 68.284-68.28 68.284zM989.864 379.736h-955.73v511.98c0 18.842 15.326 34.15 34.15 34.15h887.432c18.825 0 34.148-15.308 34.148-34.15v-511.98zM1006.932 379.736h-989.866c-9.42 0-17.066-7.631-17.066-17.068v-153.584c0-37.65 30.634-68.284 68.284-68.284h887.432c37.65 0 68.284 30.634 68.284 68.284v153.584c0 9.437-7.647 17.068-17.068 17.068zM989.868 209.084c0-18.842-15.327-34.152-34.152-34.152h-887.432c-18.824 0-34.15 15.311-34.15 34.152v136.516h955.734v-136.516zM938.664 891.734h-853.33c-9.42 0-17.066-7.628-17.066-17.066v-512c0-9.437 7.646-17.068 17.066-17.068h853.334c9.421 0 17.064 7.631 17.064 17.068v512c0 9.436-7.643 17.066-17.068 17.066zM921.6 379.732h-819.2v477.868h819.2v-477.868zM733.901 38.4h-443.801c-28.212 0-51.166-22.954-51.166-51.167v-34.169c0-9.437 7.646-17.064 17.066-17.064h512c9.421 0 17.064 7.627 17.064 17.064v34.169c0 28.213-22.954 51.167-51.163 51.167zM750.932-29.868h-477.866v17.101c0 9.404 7.646 17.031 17.032 17.031h443.803c9.384 0 17.031-7.627 17.031-17.031v-17.101zM699.732 38.4c-56.627 0-85.332 40.194-85.332 119.468 0 9.437-7.647 17.064-17.068 17.064h-170.664c-9.421 0-17.068-7.627-17.068-17.064 0-79.274-28.705-119.468-85.333-119.468-9.42 0-17.066-7.627-17.066-17.068 0-9.437 7.646-17.064 17.066-17.064h375.465c9.421 0 17.068 7.627 17.068 17.064 0 9.441-7.647 17.068-17.068 17.068zM407.397 38.4c21.012 23.261 33.382 57.942 35.872 102.4h137.474c2.474-44.458 14.848-79.139 35.873-102.4h-209.219zM546.136 243.2h-51.2v34.132h51.2c9.417 0 17.064 7.631 17.064 17.068s-7.647 17.064-17.064 17.064h-68.268c-9.421 0-17.064-7.627-17.064-17.064v-68.268c0-9.437 7.643-17.064 17.064-17.064h68.268c9.417 0 17.064 7.627 17.064 17.064 0 9.441-7.647 17.068-17.064 17.068zM233.932 818.466c-6.656 6.672-17.476 6.672-24.132 0l-68.266-68.266c-6.674-6.674-6.674-17.46 0-24.132 3.328-3.328 7.698-5 12.066-5 4.37 0 8.738 1.672 12.066 5l68.266 68.266c6.674 6.672 6.674 17.46 0 24.132zM353.401 716.066c-6.656 6.674-17.476 6.674-24.132 0l-68.268-68.266c-6.674-6.674-6.674-17.46 0-24.132 3.328-3.328 7.698-5 12.066-5 4.37 0 8.738 1.672 12.066 5l68.266 68.266c6.674 6.672 6.674 17.46 0.002 24.132zM336.332 818.466c-6.656 6.674-17.476 6.674-24.132 0l-170.666-170.666c-6.674-6.674-6.674-17.46 0-24.132 3.328-3.328 7.698-5 12.066-5 4.37 0 8.738 1.672 12.066 5l170.666 170.666c6.674 6.672 6.674 17.46 0 24.132z" />
<glyph unicode="&#xe90f;" glyph-name="pc-tower" horiz-adv-x="737" d="M684.618 960h-631.955c-29.034 0-52.663-22.972-52.663-51.2v-921.6c0-28.23 23.628-51.2 52.663-51.2h631.955c29.032 0 52.662 22.97 52.662 51.2v921.6c0 28.228-23.63 51.2-52.662 51.2zM702.169-12.8c0-9.421-7.881-17.068-17.551-17.068h-631.955c-9.689 0-17.553 7.647-17.553 17.068v921.6c0 9.42 7.864 17.066 17.553 17.066h631.955c9.687 0 17.551-7.646 17.551-17.066v-921.6zM649.507 891.734h-561.734c-9.689 0-17.554-7.628-17.554-17.066v-136.534c0-9.438 7.865-17.066 17.554-17.066h561.739c9.687 0 17.551 7.628 17.551 17.066v136.532c0 9.438-7.864 17.068-17.555 17.068zM631.955 755.2h-526.63v102.4h526.63v-102.4zM368.64 140.8c-38.726 0-70.216-30.618-70.216-68.264 0-37.65 31.493-68.268 70.216-68.268s70.218 30.618 70.218 68.268c0 37.646-31.492 68.264-70.218 68.264zM368.64 38.4c-19.362 0-35.109 15.307-35.109 34.136 0 18.821 15.745 34.132 35.109 34.132s35.109-15.307 35.109-34.132c0-18.829-15.747-34.136-35.109-34.136zM436.576 411.017c-8.061 5.255-18.96 3.088-24.33-4.764-5.356-7.848-3.161-18.448 4.911-23.671 24.58-15.892 39.256-42.463 39.256-71.115 0-47.055-39.375-85.336-87.774-85.336s-87.772 38.281-87.772 85.336c0 28.652 14.676 55.243 39.234 71.115 8.074 5.222 10.288 15.819 4.914 23.671-5.355 7.836-16.237 10.002-24.33 4.764-34.389-22.221-54.927-59.429-54.927-99.549 0-65.864 55.121-119.468 122.879-119.468s122.878 53.604 122.878 119.468c0.004 40.12-20.537 77.328-54.94 99.549zM509.075 823.466h-421.303c-9.689 0-17.554-7.628-17.554-17.066s7.865-17.066 17.554-17.066h421.303c9.687 0 17.551 7.628 17.551 17.066s-7.864 17.066-17.551 17.066zM649.507 823.466h-70.218c-9.687 0-17.551-7.628-17.551-17.066s7.864-17.066 17.551-17.066h70.218c9.691 0 17.555 7.628 17.555 17.066s-7.864 17.066-17.555 17.066zM649.507 669.866h-561.734c-9.689 0-17.554-7.628-17.554-17.066v-136.532c0-9.441 7.865-17.068 17.554-17.068h561.739c9.687 0 17.551 7.627 17.551 17.068v136.532c0 9.438-7.864 17.066-17.555 17.066zM631.955 533.336h-526.63v102.398h526.63v-102.398zM509.075 601.601h-421.303c-9.689 0-17.554-7.628-17.554-17.066s7.865-17.066 17.554-17.066h421.303c9.687 0 17.551 7.628 17.551 17.066s-7.864 17.066-17.551 17.066zM649.507 601.601h-70.218c-9.687 0-17.551-7.628-17.551-17.066s7.864-17.066 17.551-17.066h70.218c9.691 0 17.555 7.628 17.555 17.066s-7.864 17.066-17.555 17.066zM368.64 448c-9.689 0-17.554-7.627-17.554-17.064v-119.468c0-9.437 7.865-17.068 17.554-17.068s17.554 7.631 17.554 17.068v119.468c0 9.437-7.865 17.064-17.554 17.064z" />
<glyph unicode="&#xe910;" glyph-name="profile" horiz-adv-x="922" d="M74.981 270.618c48.009 48.010 113.124 74.982 181.019 74.982h409.6c67.896 0 133.012-26.972 181.018-74.982 48.010-48.005 74.982-113.121 74.982-181.018v-102.4c0-28.278-22.922-51.2-51.2-51.2s-51.2 22.922-51.2 51.2v102.4c0 40.735-16.184 79.805-44.989 108.611s-67.876 44.989-108.611 44.989h-409.6c-40.737 0-79.806-16.184-108.612-44.989s-44.988-67.871-44.988-108.611v-102.4c0-28.278-22.923-51.2-51.2-51.2s-51.2 22.922-51.2 51.2v102.4c0 67.896 26.971 133.012 74.981 181.018zM460.8 857.6c-84.831 0-153.6-68.769-153.6-153.6s68.769-153.6 153.6-153.6c84.833 0 153.6 68.769 153.6 153.6s-68.767 153.6-153.6 153.6zM204.8 704c0 141.385 114.615 256 256 256s256-114.615 256-256-114.616-256-256-256c-141.385 0-256 114.615-256 256z" />
<glyph unicode="&#xe911;" glyph-name="search" d="M460.8 857.6c-197.939 0-358.4-160.461-358.4-358.4s160.461-358.4 358.4-358.4c197.939 0 358.4 160.461 358.4 358.4s-160.461 358.4-358.4 358.4zM0 499.2c0 254.493 206.307 460.8 460.8 460.8 254.495 0 460.8-206.307 460.8-460.8 0-254.495-206.305-460.8-460.8-460.8-254.493 0-460.8 206.305-460.8 460.8zM713.876 246.124c19.994 19.994 52.413 19.994 72.407 0l222.72-222.72c19.994-19.994 19.994-52.413 0-72.407-19.994-19.999-52.413-19.999-72.407 0l-222.72 222.72c-19.994 19.994-19.994 52.413 0 72.407z" />
<glyph unicode="&#xe912;" glyph-name="shoe" horiz-adv-x="1984" d="M1871.456 886.874c-27.616-0.529-55.014-5.050-81.414-13.432-14.33-4.801-23.757-18.914-23.021-34.444v-89.897c-64.666-43.325-140.896-64.534-217.888-60.62-22.355 0-40.038 0-50.381 2.411l-218.221 213.204c-16.678 14.613-38.24 21.906-60.064 20.322-118.451 0-389.056-137.773-531.866-224.226-169.504-103.33-513.183-163.261-516.52-163.95l-7.007-2.067c-173.841-74.397-178.179-222.502-155.156-293.459 48.048-254.534 591.595-269.344 715.387-269.344h1191.866c18.426 0 33.363 15.424 33.363 34.445v183.578c17.402 20.723 28.941 45.984 33.37 73.024 0.122 1.715 0.122 3.45 0 5.165v516.65c-1.005 64.753-43.379 102.641-112.448 102.641zM541.787 559.319l44.044-82.664c9.213-16.644 29.755-22.427 45.88-12.916 16.123 9.51 21.723 30.714 12.513 47.359l-39.040 73.364c28.362 11.366 55.392 23.421 80.416 36.51l55.718-87.83c9.882-16.059 30.502-20.808 46.054-10.609 15.558 10.2 20.16 31.485 10.278 47.54-0.192 0.323-0.397 0.637-0.608 0.952l-52.717 83.008c24.019 14.122 48.71 28.244 74.406 42.021l66.733-100.575c9.715-16.163 30.291-21.135 45.946-11.103 15.661 10.031 20.474 31.266 10.758 47.428-0.608 1.016-1.274 1.997-1.984 2.94l-62.726 92.997c29.696 15.155 59.725 29.965 88.755 43.398l78.080-117.107c10.227-15.827 30.944-20.097 46.272-9.54 15.334 10.557 19.469 31.942 9.242 47.768-0.147 0.232-0.301 0.465-0.454 0.693l-69.408 103.33c60 29.135 124.070 48.316 189.862 56.831 4.755 0.668 9.587 0.668 14.342 0l133.472-129.162c-131.738-182.356-315.347-317.7-525.197-387.142-92.32 31.037-187.456 52.272-283.951 63.375-85.811 6.221-167.543 40.209-233.568 97.13 66.73 15.16 142.472 35.825 216.881 62.003zM186.763 468.044c8.342 0 29.697 5.511 59.060 11.711 82.604-86.599 192.894-139.242 310.312-148.106 109.779-5.511 341.344-81.978 500.506-137.773h-146.15c-604.273-2.413-785.789 46.842-839.843 81.286-7.674 31.002-18.352 134.673 116.116 192.883zM1883.802 40.602h-1142.483c-146.812-2.067-496.831 21.702-622.29 140.186 104.104-28.589 320.655-58.208 793.464-58.208 110.778 0 222.56 0 328.666 4.134 100.096 2.406 194.528 5.51 278.944 8.954 204.877 7.923 348.019 16.531 349.683 16.877 4.672-0.326 9.35-0.326 14.016 0v-111.942zM1917.171 270.682c-2.003-9.984-12.346-49.594-50.054-49.594-2.336 0-124.787-7.578-304.64-15.155 64.403 236.279 268.608 314.465 354.694 336.853v-272.104zM1492.41 203.174c-75.744-2.752-159.162-5.51-246.579-7.578-29.696 11.712-155.827 59.93-297.299 106.778 184.883 79.583 346.061 208.285 467.136 373.018l43.706-43.398c4.979-4.818 11.27-7.944 18.022-8.956 23.341-3.134 46.861-4.632 70.4-4.477 80.083 0 192.531 15.844 273.613 90.93 6.989 6.51 10.989 15.771 11.008 25.489v78.875c12.307 2.583 24.819 3.969 37.37 4.133 45.715 0 46.381-20.666 46.714-34.444l0.672-170.15c-88.422-21.699-355.693-110.563-424.762-410.22z" />
<glyph unicode="&#xe913;" glyph-name="smartphone" horiz-adv-x="591" d="M377.437 908.8h-164.102c-9.058 0-16.41-7.646-16.41-17.066s7.352-17.066 16.41-17.066h164.102c9.058 0 16.409 7.646 16.409 17.066s-7.352 17.066-16.409 17.066zM492.308 908.8h-16.408c-9.058 0-16.412-7.646-16.412-17.066s7.353-17.066 16.412-17.066h16.408c9.058 0 16.412 7.646 16.412 17.066s-7.353 17.066-16.412 17.066zM315.765 89.6h-40.746c-24.96 0-45.275-21.13-45.275-47.084v-8.247c0-25.954 20.315-47.069 45.26-47.069h40.746c24.96 0 45.275 21.114 45.275 47.069v8.247c0 25.954-20.315 47.084-45.26 47.084zM328.205 34.269c0-7.133-5.579-12.934-12.438-12.934h-40.748c-6.875 0-12.456 5.801-12.456 12.934v8.247c0 7.148 5.579 12.954 12.456 12.954h40.731c6.877 0 12.456-5.801 12.456-12.954v-8.247zM515.052 960h-439.319c-32.706 0-59.323-27.682-59.323-61.696v-900.608c0-34.013 26.617-61.696 59.323-61.696h439.303c32.705 0 59.321 27.683 59.321 61.676v900.628c0.004 34.014-26.616 61.696-59.305 61.696zM541.538-2.304c0-15.191-11.882-27.561-26.486-27.561h-439.319c-14.621 0-26.502 12.375-26.502 27.546v900.624c0 15.19 11.881 27.562 26.502 27.562h439.303c14.62 0 26.502-12.374 26.502-27.562v-900.608zM557.95 857.6h-525.128c-9.058 0-16.41-7.646-16.41-17.066v-716.799c0-9.421 7.352-17.069 16.41-17.069h525.128c9.058 0 16.412 7.648 16.412 17.069v716.799c0 9.42-7.353 17.066-16.412 17.066zM541.538 140.8h-492.307v682.666h492.307v-682.666z" />
<glyph unicode="&#xe914;" glyph-name="sort" horiz-adv-x="768" d="M384 618.667c30.297 0 54.857-25.47 54.857-56.889v-568.886c0-31.42-24.561-56.892-54.857-56.892s-54.857 25.472-54.857 56.892v568.886c0 31.419 24.561 56.889 54.857 56.889zM713.143 960c30.297 0 54.857-25.47 54.857-56.889v-910.219c0-31.42-24.561-56.892-54.857-56.892s-54.857 25.472-54.857 56.892v910.219c0 31.419 24.56 56.889 54.857 56.889zM54.857 277.333c30.297 0 54.857-25.47 54.857-56.889v-227.552c0-31.42-24.56-56.892-54.857-56.892s-54.857 25.472-54.857 56.892v227.552c0 31.419 24.56 56.889 54.857 56.889z" />
<glyph unicode="&#xe915;" glyph-name="target" d="M899.191 716.446c0.71-0.080 1.42-0.118 2.123-0.118 5.059 0 9.95 2.004 13.571 5.622l103.492 103.49c5.263 5.266 7.011 13.102 4.475 20.106s-8.895 11.908-16.312 12.582l-77.38 7.034-7.038 77.382c-0.672 7.416-5.577 13.774-12.582 16.308-7.004 2.536-14.838 0.792-20.108-4.474l-103.492-103.492c-4.12-4.122-6.147-9.898-5.502-15.694l9.161-82.446-19.381-19.38c-71.578 65.474-165.458 106.928-268.766 111.52v36.446c0 10.6-8.591 19.194-19.193 19.194-10.598 0-19.193-8.594-19.193-19.194v-36.44c-220.25-9.792-397.638-187.18-407.433-407.433h-36.44c-10.6 0-19.194-8.595-19.194-19.193s8.594-19.193 19.194-19.193h36.44c9.794-220.252 187.182-397.64 407.433-407.433v-36.441c0-10.598 8.595-19.193 19.193-19.193 10.602 0 19.193 8.595 19.193 19.193v36.441c220.252 9.793 397.64 187.18 407.433 407.433h36.441c10.598 0 19.193 8.595 19.193 19.193s-8.595 19.193-19.193 19.193h-36.441c-4.591 103.308-46.046 197.189-111.517 268.769l19.381 19.38 82.442-9.162zM887.603 898.257l4.775-52.5c0.84-9.228 8.148-16.538 17.377-17.378l52.497-4.772-67.99-67.99-67.185 7.464-7.465 67.184 67.99 67.992zM870.472 437.46h-27.040c-10.602 0-19.197-8.595-19.197-19.193s8.595-19.193 19.197-19.193h27.040c-9.728-199.086-169.933-359.287-369.015-369.015v27.037c0 10.602-8.595 19.197-19.193 19.197-10.602 0-19.197-8.595-19.197-19.197v-27.037c-199.082 9.725-359.286 169.933-369.016 369.012h27.042c10.6 0 19.194 8.595 19.194 19.193 0 10.602-8.594 19.197-19.194 19.197h-27.042c9.73 199.079 169.934 359.287 369.016 369.015v-27.040c0-10.6 8.595-19.194 19.193-19.194 10.602 0 19.193 8.594 19.193 19.194v27.040c92.733-4.532 177.026-41.71 241.613-100.26l-57.757-57.756c-54.166 47.838-125.269 76.918-203.049 76.918-169.344 0-307.114-137.768-307.114-307.113 0-169.342 137.77-307.111 307.114-307.111 169.339 0 307.111 137.769 307.111 307.111 0 77.78-29.082 148.883-76.916 203.053l57.757 57.756c58.552-64.587 95.727-148.883 100.26-241.613zM468.688 404.692c3.751-3.748 8.66-5.622 13.571-5.622s9.827 1.874 13.571 5.622l104.24 104.24c19.377-25.119 30.945-56.562 30.945-90.668 0-82.026-66.731-148.756-148.756-148.756-82.029 0-148.76 66.731-148.76 148.756s66.73 148.76 148.76 148.76c34.106 0 65.543-11.568 90.665-30.945l-104.24-104.24c-7.492-7.496-7.492-19.651 0.003-27.146zM482.263 605.409c-103.195 0-187.147-83.954-187.147-187.146s83.952-187.146 187.147-187.146c103.192 0 187.146 83.954 187.146 187.146 0 44.694-15.77 85.767-42.015 117.989l57.887 57.883c40.912-47.165 65.703-108.677 65.703-175.872 0-148.173-120.545-268.721-268.721-268.721-148.173 0-268.721 120.549-268.721 268.721 0 148.176 120.548 268.726 268.721 268.726 67.191 0 128.707-24.792 175.872-65.706l-57.883-57.885c-32.222 26.242-73.291 42.011-117.989 42.011z" />
<glyph unicode="&#xe916;" glyph-name="users" horiz-adv-x="1195" d="M72.898 270.619c46.675 48.009 109.982 74.981 175.991 74.981h398.222c66.010 0 129.316-26.971 175.991-74.981s72.898-113.124 72.898-181.019v-102.4c0-28.279-22.289-51.2-49.777-51.2-27.492 0-49.778 22.921-49.778 51.2v102.4c0 40.737-15.733 79.806-43.738 108.611s-65.989 44.989-105.595 44.989h-398.222c-39.606 0-77.589-16.183-105.595-44.989s-43.738-67.874-43.738-108.611v-102.4c0-28.279-22.287-51.2-49.778-51.2s-49.778 22.921-49.778 51.2v102.4c0 67.895 26.222 133.010 72.898 181.019zM448 857.6c-82.475 0-149.333-68.769-149.333-153.6s66.859-153.6 149.333-153.6c82.475 0 149.333 68.769 149.333 153.6s-66.859 153.6-149.333 153.6zM199.111 704c0 141.385 111.432 256 248.889 256s248.889-114.615 248.889-256c0-141.385-111.432-256-248.889-256s-248.889 114.615-248.889 256zM947.362 300.544c6.869 27.379 34.022 43.843 60.638 36.774 53.393-14.181 100.702-46.199 134.485-91.028s52.139-99.93 52.181-156.656v-102.434c0-28.279-22.289-51.2-49.775-51.2-27.494 0-49.783 22.921-49.783 51.2v102.366c-0.026 34.023-11.034 67.093-31.309 93.987-20.267 26.898-48.649 46.109-80.691 54.617-26.615 7.069-42.624 34.995-35.746 62.374zM748.222 914.844c6.819 27.393 33.937 43.914 60.569 36.9 53.536-14.099 100.99-46.125 134.876-91.028s52.275-100.129 52.275-156.972c0-56.843-18.389-112.069-52.275-156.972s-81.34-76.928-134.876-91.028c-26.632-7.014-53.75 9.507-60.569 36.901s9.243 55.286 35.875 62.299c32.123 8.46 60.593 27.675 80.927 54.617 20.326 26.941 31.369 60.077 31.369 94.183s-11.042 67.242-31.369 94.183c-20.333 26.941-48.804 46.157-80.927 54.617-26.632 7.014-42.694 34.906-35.875 62.3z" />
<glyph unicode="&#xe917;" glyph-name="watch" horiz-adv-x="658" d="M570.511 643.947l-18.597 298.75c-0.589 9.733-8.744 17.321-18.593 17.303h-349.59c-9.848 0.018-18.004-7.57-18.595-17.303l-18.595-298.75c-32.077-33.853-55.37-74.914-67.872-119.648h-50.951c-10.269 0-18.595-8.243-18.595-18.406v-123.882c0-10.167 8.326-18.406 18.595-18.406h53.554c13.093-41.651 35.605-79.803 65.827-111.55l18.595-298.748c0.59-9.732 8.746-17.32 18.595-17.302h349.032c9.849-0.018 18.004 7.57 18.593 17.302l18.597 298.748c104.869 110.007 104.869 281.885 0 391.893zM68.441 400.603h-22.128v87.066h22.128v-87.066zM201.211 923.369h313.514l14.877-244.449c-102.060 75.288-241.951 75.288-344.011 0l15.62 244.449zM514.725-27.001h-313.514l-14.876 244.451c102.060-75.29 241.95-75.29 344.010 0l-15.62-244.451zM358.34 197.753c-139.671 0-252.894 112.080-252.894 250.339 0 138.262 113.224 250.341 252.894 250.341s252.893-112.079 252.893-250.341c-0.102-138.214-113.265-250.236-252.893-250.339zM358.525 670.084c-0.063 0-0.123 0-0.186 0-123.739-0.203-223.97-99.504-224.072-221.992 0-122.602 100.404-221.992 224.257-221.992 123.852 0 224.259 99.39 224.259 221.992 0 122.606-100.407 221.992-224.259 221.992zM377.121 264.020v30.369c0 10.167-8.327 18.41-18.595 18.41s-18.595-8.243-18.595-18.41v-30.369c-88.438 8.898-158.366 78.12-167.356 165.665h30.868c10.269 0 18.595 8.24 18.595 18.406s-8.326 18.406-18.595 18.406h-31.054c8.991 87.545 78.918 156.767 167.357 165.667v-30.556c0-10.164 8.326-18.407 18.595-18.407 10.267 0 18.595 8.243 18.595 18.407v30.556c88.441-8.9 158.365-78.122 167.358-165.667h-30.683c-10.269 0-18.597-8.24-18.597-18.406s8.327-18.406 18.597-18.406h30.866c-8.989-87.545-78.917-156.767-167.355-165.665zM358.34 466.498h-94.463c-10.269 0-18.595-8.24-18.595-18.406s8.326-18.406 18.595-18.406h75.868v-47.492c0-10.167 8.326-18.406 18.595-18.406 10.271 0 18.595 8.24 18.595 18.406v65.898c0 10.167-8.324 18.406-18.595 18.406z" />
<glyph unicode="&#xe918;" glyph-name="wishlist" horiz-adv-x="1195" d="M725.734 934.943c41.146 16.543 85.248 25.057 129.784 25.057 44.544 0 88.644-8.515 129.792-25.057 41.131-16.54 78.515-40.781 109.995-71.339 31.497-30.548 56.491-66.832 73.54-106.749 17.050-39.925 25.822-82.717 25.822-125.933s-8.772-86.009-25.822-125.934c-17.050-39.921-42.035-76.192-73.532-106.741l-461.11-447.424c-20.371-19.763-53.397-19.763-73.768 0l-461.11 447.424c-63.597 61.709-99.325 145.405-99.325 232.675s35.728 170.965 99.325 232.674c63.597 61.71 149.853 96.377 239.793 96.377s176.196-34.668 239.793-96.377l18.408-17.861 18.399 17.853c31.484 30.561 68.873 54.814 110.015 71.355z" />
<glyph unicode="&#xe919;" glyph-name="wishlist-outline" horiz-adv-x="1122" d="M678.429 935.859c38.468 15.938 79.692 24.141 121.329 24.141 41.633 0 82.861-8.203 121.324-24.141 38.459-15.935 73.401-39.289 102.829-68.729 29.442-29.43 52.814-64.388 68.745-102.845 15.94-38.464 24.142-79.691 24.142-121.327s-8.202-82.863-24.142-121.326c-15.935-38.461-39.292-73.403-68.735-102.835-0.005-0.005 0.005 0 0 0l-431.055-431.055c-19.042-19.046-49.918-19.046-68.959 0l-431.056 431.055c-59.452 59.451-92.851 140.085-92.851 224.162s33.4 164.712 92.851 224.164c59.452 59.452 140.086 92.852 224.164 92.852s164.712-33.4 224.164-92.852l17.208-17.208 17.198 17.2c0.005 0.002 0-0.003 0 0 29.433 29.443 64.385 52.809 102.844 68.745zM799.759 862.476c-28.823 0-57.368-5.679-83.997-16.713s-50.82-27.206-71.197-47.593l-51.697-51.695c-19.042-19.043-49.918-19.043-68.959 0l-51.689 51.688c-41.162 41.162-96.991 64.288-155.204 64.288s-114.041-23.125-155.204-64.288c-41.163-41.163-64.288-96.991-64.288-155.204s23.125-114.041 64.288-155.204l396.576-396.575 396.576 396.575c20.387 20.377 36.567 44.58 47.601 71.208 11.030 26.629 16.711 55.171 16.711 83.995s-5.681 57.366-16.711 83.996c-11.035 26.629-27.209 50.823-47.596 71.2-20.373 20.387-44.583 36.575-71.212 47.609s-55.174 16.713-83.997 16.713z" />
<glyph unicode="&#xe91a;" glyph-name="women" horiz-adv-x="989" d="M952.737 763.84l-169.931 160c-2.842 2.677-6.55 4.16-10.392 4.16h-154.483c-4.096 0-8.026-1.686-10.921-4.686-2.899-3-4.527-7.070-4.527-11.314 0-9.288-37.895-32-108.138-32s-108.138 22.712-108.138 32c0 4.244-1.628 8.313-4.523 11.314-2.899 3.001-6.829 4.686-10.925 4.686h-154.482c-3.843 0-7.548-1.483-10.391-4.16l-169.931-160c-2.781-2.618-4.546-6.197-4.962-10.065s0.542-7.762 2.697-10.951l108.138-159.999c1.226-1.815 2.803-3.347 4.629-4.499s3.864-1.896 5.984-2.189c2.119-0.29 4.274-0.124 6.329 0.487 2.054 0.614 3.963 1.667 5.606 3.083l51.902 44.799c0-0.238 0-0.466 0-0.688 0.336-30.675 11.258-76.755 22.819-125.536s23.526-99.25 23.526-130.281c0-24.29-13.066-72.075-28.193-127.4-21.854-79.932-49.048-179.401-49.048-256.6 0-4.244 1.627-8.316 4.525-11.313 2.897-3.001 6.826-4.689 10.924-4.689h587.034c4.096 0 8.026 1.688 10.925 4.689 2.895 2.998 4.523 7.069 4.523 11.313 0 77.199-27.192 176.672-49.046 256.6-15.13 55.328-28.195 103.11-28.195 127.4 0 31.031 11.96 81.486 23.524 130.285s22.482 94.858 22.821 125.533c0 0.222 0 0.45 0 0.688l51.903-44.799c1.642-1.419 3.552-2.468 5.607-3.083 2.052-0.614 4.209-0.78 6.328-0.487s4.156 1.038 5.982 2.189c1.829 1.151 3.404 2.68 4.629 4.495l108.138 160c2.157 3.189 3.118 7.083 2.701 10.952-0.42 3.869-2.182 7.448-4.965 10.066zM494.345 848c35.858 0 71.924 5.936 98.343 17.506-8.598-19.538-22.443-36.101-39.88-47.716s-37.733-17.79-58.463-17.79c-20.731 0-41.024 6.176-58.463 17.79-17.436 11.615-31.278 28.179-39.88 47.716 26.423-11.57 62.485-17.506 98.343-17.506zM831.188 615.434l-71.327 61.566c-2.496 2.157-5.59 3.442-8.831 3.672-3.245 0.231-6.479-0.606-9.237-2.389s-4.905-4.423-6.13-7.543c-1.225-3.12-1.469-6.561-0.696-9.833 6.003-25.422 6.582-34.152 6.564-36.726-0.297-26.999-11.296-73.401-21.928-118.27-12.020-50.642-24.431-103.011-24.431-137.912 0-28.732 12.959-76.126 29.364-136.121 19.802-72.429 44.099-161.301 47.482-231.88h-555.344c3.381 70.575 27.678 159.447 47.48 231.872 16.414 60.003 29.363 107.4 29.363 136.128 0 34.901-12.411 87.266-24.414 137.908-10.636 44.876-21.628 91.284-21.931 118.273-0.027 2.574 0.554 11.306 6.565 36.724 0.777 3.275 0.535 6.72-0.69 9.843s-3.373 5.767-6.135 7.551c-2.762 1.785-5.998 2.62-9.246 2.386s-6.341-1.524-8.839-3.686l-71.327-61.566-90.701 134.2 155.448 146.366h133.912c3.803-35.203 19.996-67.721 45.49-91.336 25.491-23.615 58.492-36.67 92.693-36.67s67.203 13.056 92.697 36.67c25.491 23.615 41.687 56.133 45.487 91.336h133.914l155.447-146.364-90.702-134.202z" />
</font>
</defs>
</svg>
