<svg width="190" height="17" fill="none" xmlns="http://www.w3.org/2000/svg"><path d="M.399 12.997l1.953-.798c.252.266.448.469.588.609.14.126.364.287.672.483.308.196.672.378 1.092.546 1.162.476 2.583.714 4.263.714 1.764 0 3.087-.336 3.969-1.008.672-.518 1.008-1.183 1.008-1.995 0-.448-.112-.826-.336-1.134-.21-.308-.525-.539-.945-.693a6.354 6.354 0 00-1.197-.357c-.364-.07-.812-.126-1.344-.168l-2.268-.21a121.922 121.922 0 01-2.52-.252 8.63 8.63 0 01-1.491-.378A3.712 3.712 0 012.541 7.6c-.7-.644-1.05-1.47-1.05-2.478 0-1.512.686-2.632 2.058-3.36C4.725 1.118 6.356.796 8.442.796c3.542 0 6.013.994 7.413 2.982l-1.932.777a7.405 7.405 0 00-2.331-1.512c-.84-.336-1.883-.504-3.129-.504-.602 0-1.169.042-1.701.126-.532.07-1.05.189-1.554.357-.49.168-.882.427-1.176.777a1.786 1.786 0 00-.441 1.218c0 .378.077.7.231.966.168.252.413.448.735.588.322.126.63.224.924.294.294.056.665.105 1.113.147l4.599.441c1.54.154 2.73.574 3.57 1.26.84.686 1.26 1.624 1.26 2.814 0 .616-.112 1.19-.336 1.722-.224.532-.595 1.043-1.113 1.533-.518.476-1.274.861-2.268 1.155-.994.28-2.177.42-3.549.42-1.848 0-3.528-.273-5.04-.819-1.512-.546-2.618-1.393-3.318-2.541zM34.881 16h-2.12V8.986H21.398V16h-2.142V1.174h2.121v6.048H32.74V1.174h2.142V16zm21.346-7.203c0 2.184-.79 3.997-2.373 5.439-1.568 1.442-3.759 2.163-6.573 2.163-2.786 0-4.998-.672-6.636-2.016-1.624-1.358-2.436-3.234-2.436-5.628 0-1.288.245-2.443.735-3.465.49-1.036 1.148-1.869 1.974-2.499a9.207 9.207 0 012.856-1.47 11.163 11.163 0 013.381-.504c1.134 0 2.226.161 3.276.483a9.329 9.329 0 012.877 1.407c.882.616 1.59 1.449 2.121 2.499.532 1.05.798 2.247.798 3.591zm-2.12-.21c0-.714-.127-1.407-.379-2.079a5.765 5.765 0 00-1.134-1.89c-.504-.602-1.225-1.085-2.163-1.449-.938-.364-2.03-.546-3.276-.546a8.74 8.74 0 00-2.604.378 6.947 6.947 0 00-2.163 1.071c-.644.476-1.155 1.106-1.533 1.89-.364.784-.546 1.687-.546 2.709 0 1.834.623 3.276 1.87 4.326 1.245 1.05 2.96 1.575 5.144 1.575 1.218 0 2.282-.168 3.192-.504.91-.35 1.617-.812 2.121-1.386a5.948 5.948 0 001.113-1.89 6.681 6.681 0 00.357-2.205zM59.513 16V1.174h9.303c2.38 0 4.032.665 4.956 1.995.504.742.755 1.589.755 2.541 0 1.442-.518 2.555-1.553 3.339a4.333 4.333 0 01-1.365.693c-.504.154-.939.245-1.302.273-.365.028-.876.042-1.534.042h-7.118V16h-2.142zm2.12-7.707h6.847c.49 0 .889-.014 1.197-.042a3.887 3.887 0 001.05-.273c.392-.168.714-.406.966-.714.364-.434.546-.994.546-1.68 0-.63-.175-1.162-.525-1.596-.267-.322-.624-.567-1.072-.735-.433-.168-.805-.259-1.112-.273a15.015 15.015 0 00-1.282-.042h-6.614v5.355zM101.42 16h-1.995l.105-12.726L93.46 16h-1.973L85.439 3.274c.07 8.12.105 12.362.105 12.726H83.57V1.174h2.898l6.048 12.558 6.048-12.558h2.856V16zm18.9 0h-2.436l-1.806-3.654h-9.114L105.158 16h-2.373l7.686-14.826h2.247L120.32 16zm-5.145-5.355l-3.633-7.35-3.696 7.35h7.329zM139.115 16h-2.751l-5.019-5.943h-7.161V16h-2.121V1.174h10.101c.994 0 1.778.077 2.352.231.994.266 1.764.763 2.31 1.491.546.728.819 1.603.819 2.625 0 1.876-.798 3.143-2.394 3.801-.434.168-.973.301-1.617.399L139.115 16zm-14.952-7.686h7.329c.518 0 .938-.014 1.26-.042a3.997 3.997 0 001.134-.294c.434-.182.777-.434 1.029-.756.364-.434.546-.973.546-1.617 0-.532-.126-1.015-.378-1.449-.28-.504-.644-.833-1.092-.987-.434-.154-.994-.231-1.68-.231h-8.148v5.376zM157.941 16h-2.814l-6.699-7.98-4.599 3.381V16h-2.037V1.174h2.079V9.07l10.689-7.896h3.087L150.15 6.76l7.791 9.24zm16.012 0h-14.217V1.174h13.671v1.827h-11.571v4.41h11.277v1.764h-11.277v4.998h12.117V16zm15.141-13.062h-6.069V16h-2.1V2.938h-6.048V1.174h14.217v1.764z" fill="#111"/></svg>